 http://i.imgur.com/89Tu7w6.jpg

General
Complete name : Goals- Bayern Munich vs Barcelona 4-0 Champions League 2013 720p HD by-{zinkslane}.MP4
Format : MPEG-4
Format profile : Base Media / Version 2
Codec ID : mp42
File size : 37.5 MiB
Duration : 2mn 21s
Overall bit rate mode : Variable
Overall bit rate : 2 227 Kbps
Encoded date : UTC 2013-04-23 04:07:46
Tagged date : UTC 2013-04-23 04:07:46
====================================================================================

Video
ID : 1
Format : AVC
Format/Info : Advanced Video Codec
Format profile : High@L3.1
Format settings, CABAC : Yes
Format settings, ReFrames : 1 frame
Codec ID : avc1
Codec ID/Info : Advanced Video Coding
Duration : 2mn 21s
Bit rate : 2 033 Kbps
Maximum bit rate : 3 835 Kbps
Width : 1 280 pixels
Height : 720 pixels
Display aspect ratio : 16:9
Frame rate mode : Constant
Frame rate : 24.000 fps
Color space : YUV
Chroma subsampling : 4:2:0
Bit depth : 8 bits
Scan type : Progressive
Bits/(Pixel*Frame) : 0.092
Stream size : 34.2 MiB (91%)
Tagged date : UTC 2013-04-23 04:07:51
===================================================================================
Audio
ID : 2
Format : AAC
Format/Info : Advanced Audio Codec
Format profile : LC
Codec ID : 40
Duration : 2mn 21s
Bit rate mode : Variable
Bit rate : 192 Kbps
Maximum bit rate : 202 Kbps
Channel(s) : 2 channels
Channel positions : Front: L R
Sampling rate : 44.1 KHz
Compression mode : Lossy
Stream size : 3.24 MiB (9%)
===================================================================================
screen shots -  
http://i.imgur.com/jRef7Ej.jpg

 
http://i.imgur.com/4U4Dh9K.jpg

do seed n' share!!!!